<svg width="226" height="108" viewBox="0 0 226 108" fill="none" xmlns="http://www.w3.org/2000/svg">
<circle cx="115" cy="65" r="43" fill="black"/>
<circle cx="115" cy="65" r="32.4304" fill="black" stroke="#10D610"/>
<circle cx="115" cy="64.9999" r="16.3734" fill="black" stroke="#10D610"/>
<circle cx="115" cy="65" r="3" fill="#10D610"/>
<circle cx="126" cy="68" r="3" fill="#ED0000"/>
<circle cx="112" cy="39" r="3" fill="#ED0000"/>
<circle cx="80" cy="79" r="3" fill="#ED0000"/>
<line x1="51" y1="78.5" x2="80" y2="78.5" stroke="#FF4848" stroke-dasharray="2 4"/>
<line x1="112" y1="38.5" x2="183" y2="38.5" stroke="#FF4848" stroke-dasharray="2 4"/>
<line x1="126" y1="68.5" x2="198" y2="68.5" stroke="#FF4848" stroke-dasharray="2 4"/>
<line x1="198.5" y1="68" x2="198.5" y2="84" stroke="#FF4848" stroke-dasharray="2 4"/>
<line x1="185.5" y1="15" x2="185.5" y2="39" stroke="#FF4848" stroke-dasharray="2 4"/>
<rect y="71" width="48" height="15" rx="4" fill="#ED0000"/>
<rect x="156" width="58" height="15" rx="4" fill="#ED0000"/>
<rect x="168" y="84" width="58" height="15" rx="4" fill="#ED0000"/>
<path d="M12.8774 82H11.5591V79.2578H8.98828V82H7.66992V75.6016H8.98828V78.1943H11.5591V75.6016H12.8774V82ZM13.752 79.5786C13.752 79.1069 13.8428 78.6865 14.0244 78.3174C14.2061 77.9482 14.4668 77.6626 14.8066 77.4604C15.1494 77.2583 15.5464 77.1572 15.9976 77.1572C16.6392 77.1572 17.1621 77.3535 17.5664 77.7461C17.9736 78.1387 18.2007 78.6719 18.2476 79.3457L18.2563 79.6709C18.2563 80.4004 18.0527 80.9863 17.6455 81.4287C17.2383 81.8682 16.6919 82.0879 16.0063 82.0879C15.3208 82.0879 14.7729 81.8682 14.3628 81.4287C13.9556 80.9893 13.752 80.3916 13.752 79.6357V79.5786ZM15.022 79.6709C15.022 80.1221 15.1069 80.4678 15.2769 80.708C15.4468 80.9453 15.6899 81.064 16.0063 81.064C16.314 81.064 16.5542 80.9468 16.7271 80.7124C16.8999 80.4751 16.9863 80.0972 16.9863 79.5786C16.9863 79.1362 16.8999 78.7935 16.7271 78.5503C16.5542 78.3071 16.311 78.1855 15.9976 78.1855C15.687 78.1855 15.4468 78.3071 15.2769 78.5503C15.1069 78.7905 15.022 79.1641 15.022 79.6709ZM21.6138 80.686C21.6138 80.5308 21.5361 80.4092 21.3809 80.3213C21.2285 80.2305 20.9824 80.1499 20.6426 80.0796C19.5117 79.8423 18.9463 79.3618 18.9463 78.6382C18.9463 78.2163 19.1206 77.8647 19.4692 77.5835C19.8208 77.2993 20.2793 77.1572 20.8447 77.1572C21.4482 77.1572 21.9302 77.2993 22.2905 77.5835C22.6538 77.8677 22.8354 78.2368 22.8354 78.6909H21.5654C21.5654 78.5093 21.5068 78.3599 21.3896 78.2427C21.2725 78.1226 21.0894 78.0625 20.8403 78.0625C20.6265 78.0625 20.4609 78.1108 20.3438 78.2075C20.2266 78.3042 20.168 78.4272 20.168 78.5767C20.168 78.7173 20.2339 78.8315 20.3657 78.9194C20.5005 79.0044 20.7261 79.0791 21.0425 79.1436C21.3589 79.2051 21.6255 79.2754 21.8423 79.3545C22.5132 79.6006 22.8486 80.0269 22.8486 80.6333C22.8486 81.0669 22.6626 81.4185 22.2905 81.688C21.9185 81.9546 21.438 82.0879 20.8491 82.0879C20.4507 82.0879 20.0962 82.0176 19.7856 81.877C19.478 81.7334 19.2363 81.5386 19.0605 81.2925C18.8848 81.0435 18.7969 80.7754 18.7969 80.4883H20.001C20.0127 80.7139 20.0962 80.8867 20.2515 81.0068C20.4067 81.127 20.6147 81.187 20.8755 81.187C21.1187 81.187 21.3018 81.1416 21.4248 81.0508C21.5508 80.957 21.6138 80.8354 21.6138 80.686ZM27.9507 79.6665C27.9507 80.3989 27.7837 80.9863 27.4497 81.4287C27.1187 81.8682 26.6704 82.0879 26.105 82.0879C25.6245 82.0879 25.2363 81.9209 24.9404 81.5869V83.8281H23.6704V77.2451H24.8481L24.8921 77.7109C25.1997 77.3418 25.6011 77.1572 26.0962 77.1572C26.6821 77.1572 27.1377 77.374 27.4629 77.8076C27.7881 78.2412 27.9507 78.8389 27.9507 79.6006V79.6665ZM26.6807 79.5742C26.6807 79.1318 26.6016 78.7905 26.4434 78.5503C26.2881 78.3101 26.061 78.1899 25.7622 78.1899C25.3638 78.1899 25.0898 78.3423 24.9404 78.647V80.5938C25.0957 80.9072 25.3726 81.064 25.771 81.064C26.3774 81.064 26.6807 80.5674 26.6807 79.5742ZM30.082 82H28.8076V77.2451H30.082V82ZM28.7329 76.0146C28.7329 75.8242 28.7959 75.6675 28.9219 75.5444C29.0508 75.4214 29.2251 75.3599 29.4448 75.3599C29.6616 75.3599 29.8345 75.4214 29.9634 75.5444C30.0923 75.6675 30.1567 75.8242 30.1567 76.0146C30.1567 76.208 30.0908 76.3662 29.959 76.4893C29.8301 76.6123 29.6587 76.6738 29.4448 76.6738C29.231 76.6738 29.0581 76.6123 28.9263 76.4893C28.7974 76.3662 28.7329 76.208 28.7329 76.0146ZM32.6528 76.0762V77.2451H33.4658V78.1768H32.6528V80.5498C32.6528 80.7256 32.6865 80.8516 32.7539 80.9277C32.8213 81.0039 32.9502 81.042 33.1406 81.042C33.2812 81.042 33.4058 81.0317 33.5142 81.0112V81.9736C33.2651 82.0498 33.0088 82.0879 32.7451 82.0879C31.8545 82.0879 31.4004 81.6382 31.3828 80.7388V78.1768H30.6885V77.2451H31.3828V76.0762H32.6528ZM36.9287 82C36.8701 81.8857 36.8276 81.7437 36.8013 81.5737C36.4937 81.9165 36.0938 82.0879 35.6016 82.0879C35.1357 82.0879 34.749 81.9531 34.4414 81.6836C34.1367 81.4141 33.9844 81.0742 33.9844 80.6641C33.9844 80.1602 34.1704 79.7734 34.5425 79.5039C34.9175 79.2344 35.458 79.0981 36.1641 79.0952H36.7485V78.8228C36.7485 78.603 36.6914 78.4272 36.5771 78.2954C36.4658 78.1636 36.2886 78.0977 36.0454 78.0977C35.8315 78.0977 35.6631 78.1489 35.54 78.2515C35.4199 78.354 35.3599 78.4946 35.3599 78.6733H34.0898C34.0898 78.3979 34.1748 78.1431 34.3447 77.9087C34.5146 77.6743 34.7549 77.4912 35.0654 77.3594C35.376 77.2246 35.7246 77.1572 36.1113 77.1572C36.6973 77.1572 37.1616 77.3052 37.5044 77.6011C37.8501 77.894 38.0229 78.3071 38.0229 78.8403V80.9014C38.0259 81.3525 38.0889 81.6938 38.2119 81.9253V82H36.9287ZM35.8784 81.1167C36.0659 81.1167 36.2388 81.0757 36.397 80.9937C36.5552 80.9087 36.6724 80.7959 36.7485 80.6553V79.8379H36.2739C35.6382 79.8379 35.2998 80.0576 35.2588 80.4971L35.2544 80.5718C35.2544 80.73 35.3101 80.8604 35.4214 80.9629C35.5327 81.0654 35.6851 81.1167 35.8784 81.1167ZM40.3389 82H39.0645V75.25H40.3389V82Z" fill="white"/>
<path d="M163.998 8.65771H162.947V11H161.629V4.60156H164.006C164.762 4.60156 165.345 4.77002 165.755 5.10693C166.166 5.44385 166.371 5.91992 166.371 6.53516C166.371 6.97168 166.275 7.33643 166.085 7.62939C165.897 7.91943 165.612 8.15088 165.228 8.32373L166.612 10.9385V11H165.197L163.998 8.65771ZM162.947 7.58984H164.011C164.342 7.58984 164.598 7.50635 164.78 7.33936C164.961 7.16943 165.052 6.93652 165.052 6.64062C165.052 6.33887 164.966 6.10156 164.793 5.92871C164.623 5.75586 164.361 5.66943 164.006 5.66943H162.947V7.58984ZM167.096 8.57861C167.096 8.10693 167.187 7.68652 167.368 7.31738C167.55 6.94824 167.811 6.6626 168.15 6.46045C168.493 6.2583 168.89 6.15723 169.341 6.15723C169.983 6.15723 170.506 6.35352 170.91 6.74609C171.317 7.13867 171.544 7.67188 171.591 8.3457L171.6 8.6709C171.6 9.40039 171.396 9.98633 170.989 10.4287C170.582 10.8682 170.036 11.0879 169.35 11.0879C168.665 11.0879 168.117 10.8682 167.707 10.4287C167.299 9.98926 167.096 9.3916 167.096 8.63574V8.57861ZM168.366 8.6709C168.366 9.12207 168.451 9.46777 168.621 9.70801C168.791 9.94531 169.034 10.064 169.35 10.064C169.658 10.064 169.898 9.94678 170.071 9.7124C170.244 9.4751 170.33 9.09717 170.33 8.57861C170.33 8.13623 170.244 7.79346 170.071 7.55029C169.898 7.30713 169.655 7.18555 169.341 7.18555C169.031 7.18555 168.791 7.30713 168.621 7.55029C168.451 7.79053 168.366 8.16406 168.366 8.6709ZM175.138 11C175.079 10.8857 175.037 10.7437 175.01 10.5737C174.703 10.9165 174.303 11.0879 173.811 11.0879C173.345 11.0879 172.958 10.9531 172.65 10.6836C172.346 10.4141 172.193 10.0742 172.193 9.66406C172.193 9.16016 172.379 8.77344 172.751 8.50391C173.126 8.23438 173.667 8.09814 174.373 8.09521H174.958V7.82275C174.958 7.60303 174.9 7.42725 174.786 7.29541C174.675 7.16357 174.498 7.09766 174.254 7.09766C174.041 7.09766 173.872 7.14893 173.749 7.25146C173.629 7.354 173.569 7.49463 173.569 7.67334H172.299C172.299 7.39795 172.384 7.14307 172.554 6.90869C172.724 6.67432 172.964 6.49121 173.274 6.35938C173.585 6.22461 173.934 6.15723 174.32 6.15723C174.906 6.15723 175.371 6.30518 175.713 6.60107C176.059 6.89404 176.232 7.30713 176.232 7.84033V9.90137C176.235 10.3525 176.298 10.6938 176.421 10.9253V11H175.138ZM174.087 10.1167C174.275 10.1167 174.448 10.0757 174.606 9.99365C174.764 9.90869 174.881 9.7959 174.958 9.65527V8.83789H174.483C173.847 8.83789 173.509 9.05762 173.468 9.49707L173.463 9.57178C173.463 9.72998 173.519 9.86035 173.63 9.96289C173.742 10.0654 173.894 10.1167 174.087 10.1167ZM177.01 8.5874C177.01 7.84619 177.175 7.25586 177.506 6.81641C177.84 6.37695 178.296 6.15723 178.873 6.15723C179.336 6.15723 179.718 6.33008 180.02 6.67578V4.25H181.294V11H180.147L180.086 10.4946C179.77 10.8901 179.362 11.0879 178.864 11.0879C178.305 11.0879 177.855 10.8682 177.515 10.4287C177.178 9.98633 177.01 9.37256 177.01 8.5874ZM178.28 8.67969C178.28 9.125 178.357 9.46631 178.513 9.70361C178.668 9.94092 178.894 10.0596 179.189 10.0596C179.582 10.0596 179.859 9.89404 180.02 9.56299V7.68652C179.862 7.35547 179.588 7.18994 179.198 7.18994C178.586 7.18994 178.28 7.68652 178.28 8.67969ZM187.921 9.32129C187.921 9.07227 187.833 8.88184 187.658 8.75C187.482 8.61523 187.166 8.47461 186.708 8.32812C186.251 8.17871 185.89 8.03223 185.623 7.88867C184.896 7.49609 184.533 6.96729 184.533 6.30225C184.533 5.95654 184.63 5.64893 184.823 5.37939C185.02 5.10693 185.299 4.89453 185.663 4.74219C186.029 4.58984 186.439 4.51367 186.893 4.51367C187.35 4.51367 187.757 4.59717 188.115 4.76416C188.472 4.92822 188.749 5.16113 188.945 5.46289C189.145 5.76465 189.244 6.10742 189.244 6.49121H187.926C187.926 6.19824 187.833 5.97119 187.649 5.81006C187.464 5.646 187.205 5.56396 186.871 5.56396C186.549 5.56396 186.298 5.63281 186.12 5.77051C185.941 5.90527 185.852 6.08398 185.852 6.30664C185.852 6.51465 185.956 6.68896 186.164 6.82959C186.375 6.97021 186.684 7.10205 187.091 7.2251C187.841 7.45068 188.387 7.73047 188.73 8.06445C189.073 8.39844 189.244 8.81445 189.244 9.3125C189.244 9.86621 189.035 10.3013 188.616 10.6177C188.197 10.9312 187.633 11.0879 186.924 11.0879C186.432 11.0879 185.983 10.9985 185.579 10.8198C185.175 10.6382 184.866 10.3906 184.652 10.0771C184.441 9.76367 184.335 9.40039 184.335 8.9873H185.658C185.658 9.69336 186.08 10.0464 186.924 10.0464C187.237 10.0464 187.482 9.9834 187.658 9.85742C187.833 9.72852 187.921 9.5498 187.921 9.32129ZM192.812 11C192.754 10.8857 192.711 10.7437 192.685 10.5737C192.377 10.9165 191.978 11.0879 191.485 11.0879C191.02 11.0879 190.633 10.9531 190.325 10.6836C190.021 10.4141 189.868 10.0742 189.868 9.66406C189.868 9.16016 190.054 8.77344 190.426 8.50391C190.801 8.23438 191.342 8.09814 192.048 8.09521H192.632V7.82275C192.632 7.60303 192.575 7.42725 192.461 7.29541C192.35 7.16357 192.172 7.09766 191.929 7.09766C191.715 7.09766 191.547 7.14893 191.424 7.25146C191.304 7.354 191.244 7.49463 191.244 7.67334H189.974C189.974 7.39795 190.059 7.14307 190.229 6.90869C190.398 6.67432 190.639 6.49121 190.949 6.35938C191.26 6.22461 191.608 6.15723 191.995 6.15723C192.581 6.15723 193.045 6.30518 193.388 6.60107C193.734 6.89404 193.907 7.30713 193.907 7.84033V9.90137C193.91 10.3525 193.973 10.6938 194.096 10.9253V11H192.812ZM191.762 10.1167C191.95 10.1167 192.123 10.0757 192.281 9.99365C192.439 9.90869 192.556 9.7959 192.632 9.65527V8.83789H192.158C191.522 8.83789 191.184 9.05762 191.143 9.49707L191.138 9.57178C191.138 9.72998 191.194 9.86035 191.305 9.96289C191.417 10.0654 191.569 10.1167 191.762 10.1167ZM195.229 11V7.17676H194.522V6.24512H195.229V5.84082C195.229 5.30762 195.382 4.89453 195.687 4.60156C195.994 4.30566 196.423 4.15771 196.974 4.15771C197.15 4.15771 197.365 4.18701 197.62 4.24561L197.607 5.22998C197.501 5.20361 197.373 5.19043 197.22 5.19043C196.743 5.19043 196.504 5.41455 196.504 5.86279V6.24512H197.449V7.17676H196.504V11H195.229ZM200.191 11.0879C199.494 11.0879 198.925 10.874 198.486 10.4463C198.049 10.0186 197.831 9.44873 197.831 8.73682V8.61377C197.831 8.13623 197.923 7.70996 198.108 7.33496C198.292 6.95703 198.553 6.66699 198.89 6.46484C199.23 6.25977 199.617 6.15723 200.05 6.15723C200.701 6.15723 201.212 6.3623 201.584 6.77246C201.959 7.18262 202.146 7.76416 202.146 8.51709V9.03564H199.119C199.16 9.34619 199.283 9.59521 199.488 9.78271C199.696 9.97021 199.958 10.064 200.274 10.064C200.764 10.064 201.146 9.88672 201.421 9.53223L202.045 10.231C201.855 10.5005 201.597 10.7114 201.272 10.8638C200.947 11.0132 200.586 11.0879 200.191 11.0879ZM200.046 7.18555C199.794 7.18555 199.589 7.27051 199.431 7.44043C199.275 7.61035 199.176 7.85352 199.132 8.16992H200.898V8.06885C200.893 7.7876 200.816 7.5708 200.67 7.41846C200.523 7.26318 200.315 7.18555 200.046 7.18555ZM204.392 5.07617V6.24512H205.205V7.17676H204.392V9.5498C204.392 9.72559 204.426 9.85156 204.493 9.92773C204.561 10.0039 204.689 10.042 204.88 10.042C205.021 10.042 205.145 10.0317 205.253 10.0112V10.9736C205.004 11.0498 204.748 11.0879 204.484 11.0879C203.594 11.0879 203.14 10.6382 203.122 9.73877V7.17676H202.428V6.24512H203.122V5.07617H204.392ZM207.688 9.20264L208.567 6.24512H209.929L208.018 11.7383L207.912 11.9888C207.628 12.6099 207.159 12.9204 206.506 12.9204C206.321 12.9204 206.134 12.8926 205.943 12.8369V11.8745L206.137 11.8789C206.377 11.8789 206.556 11.8423 206.673 11.769C206.793 11.6958 206.887 11.5742 206.954 11.4043L207.104 11.0132L205.438 6.24512H206.805L207.688 9.20264Z" fill="white"/>
<path d="M176.441 92.3853H173.91V95H172.592V88.6016H176.758V89.6694H173.91V91.3218H176.441V92.3853ZM178.779 95H177.505V90.2451H178.779V95ZM177.43 89.0146C177.43 88.8242 177.493 88.6675 177.619 88.5444C177.748 88.4214 177.922 88.3599 178.142 88.3599C178.359 88.3599 178.532 88.4214 178.661 88.5444C178.79 88.6675 178.854 88.8242 178.854 89.0146C178.854 89.208 178.788 89.3662 178.656 89.4893C178.527 89.6123 178.356 89.6738 178.142 89.6738C177.928 89.6738 177.755 89.6123 177.624 89.4893C177.495 89.3662 177.43 89.208 177.43 89.0146ZM182.501 91.436C182.329 91.4126 182.176 91.4009 182.044 91.4009C181.564 91.4009 181.249 91.5635 181.1 91.8887V95H179.83V90.2451H181.029L181.064 90.812C181.319 90.3755 181.672 90.1572 182.124 90.1572C182.264 90.1572 182.396 90.1763 182.519 90.2144L182.501 91.436ZM185.217 95.0879C184.52 95.0879 183.952 94.874 183.512 94.4463C183.076 94.0186 182.857 93.4487 182.857 92.7368V92.6138C182.857 92.1362 182.95 91.71 183.134 91.335C183.319 90.957 183.58 90.667 183.917 90.4648C184.256 90.2598 184.643 90.1572 185.077 90.1572C185.727 90.1572 186.238 90.3623 186.61 90.7725C186.985 91.1826 187.173 91.7642 187.173 92.5171V93.0356H184.145C184.186 93.3462 184.309 93.5952 184.514 93.7827C184.722 93.9702 184.984 94.064 185.301 94.064C185.79 94.064 186.172 93.8867 186.448 93.5322L187.072 94.231C186.881 94.5005 186.624 94.7114 186.298 94.8638C185.973 95.0132 185.613 95.0879 185.217 95.0879ZM185.072 91.1855C184.82 91.1855 184.615 91.2705 184.457 91.4404C184.302 91.6104 184.202 91.8535 184.158 92.1699H185.925V92.0688C185.919 91.7876 185.843 91.5708 185.696 91.4185C185.55 91.2632 185.342 91.1855 185.072 91.1855ZM194.072 92.3853H191.541V95H190.223V88.6016H194.389V89.6694H191.541V91.3218H194.072V92.3853ZM196.41 95H195.136V90.2451H196.41V95ZM195.061 89.0146C195.061 88.8242 195.124 88.6675 195.25 88.5444C195.379 88.4214 195.553 88.3599 195.773 88.3599C195.99 88.3599 196.163 88.4214 196.292 88.5444C196.42 88.6675 196.485 88.8242 196.485 89.0146C196.485 89.208 196.419 89.3662 196.287 89.4893C196.158 89.6123 195.987 89.6738 195.773 89.6738C195.559 89.6738 195.386 89.6123 195.254 89.4893C195.125 89.3662 195.061 89.208 195.061 89.0146ZM197.276 92.5874C197.276 91.8579 197.449 91.2705 197.794 90.8252C198.143 90.3799 198.612 90.1572 199.201 90.1572C199.722 90.1572 200.128 90.3359 200.418 90.6934L200.471 90.2451H201.622V94.8418C201.622 95.2578 201.527 95.6196 201.336 95.9272C201.149 96.2349 200.884 96.4692 200.541 96.6304C200.198 96.7915 199.797 96.8721 199.337 96.8721C198.988 96.8721 198.648 96.8018 198.317 96.6611C197.986 96.5234 197.736 96.3447 197.566 96.125L198.128 95.3516C198.445 95.7061 198.829 95.8833 199.28 95.8833C199.617 95.8833 199.879 95.7925 200.066 95.6108C200.254 95.4321 200.348 95.1772 200.348 94.8462V94.5913C200.055 94.9224 199.669 95.0879 199.192 95.0879C198.621 95.0879 198.158 94.8652 197.803 94.4199C197.452 93.9717 197.276 93.3784 197.276 92.6401V92.5874ZM198.546 92.6797C198.546 93.1104 198.632 93.4487 198.805 93.6948C198.978 93.938 199.215 94.0596 199.517 94.0596C199.904 94.0596 200.181 93.9146 200.348 93.6245V91.625C200.178 91.335 199.904 91.1899 199.526 91.1899C199.221 91.1899 198.981 91.3145 198.805 91.5635C198.632 91.8125 198.546 92.1846 198.546 92.6797ZM203.841 90.7637C204.178 90.3594 204.602 90.1572 205.111 90.1572C206.143 90.1572 206.666 90.7563 206.68 91.9546V95H205.41V91.9897C205.41 91.7173 205.352 91.5166 205.234 91.3877C205.117 91.2559 204.922 91.1899 204.65 91.1899C204.278 91.1899 204.008 91.3335 203.841 91.6206V95H202.571V88.25H203.841V90.7637ZM209.159 89.0762V90.2451H209.972V91.1768H209.159V93.5498C209.159 93.7256 209.192 93.8516 209.26 93.9277C209.327 94.0039 209.456 94.042 209.646 94.042C209.787 94.042 209.912 94.0317 210.02 94.0112V94.9736C209.771 95.0498 209.515 95.0879 209.251 95.0879C208.36 95.0879 207.906 94.6382 207.889 93.7388V91.1768H207.194V90.2451H207.889V89.0762H209.159ZM212.868 95.0879C212.17 95.0879 211.602 94.874 211.163 94.4463C210.726 94.0186 210.508 93.4487 210.508 92.7368V92.6138C210.508 92.1362 210.6 91.71 210.785 91.335C210.969 90.957 211.23 90.667 211.567 90.4648C211.907 90.2598 212.293 90.1572 212.727 90.1572C213.377 90.1572 213.889 90.3623 214.261 90.7725C214.636 91.1826 214.823 91.7642 214.823 92.5171V93.0356H211.795C211.836 93.3462 211.959 93.5952 212.165 93.7827C212.373 93.9702 212.635 94.064 212.951 94.064C213.44 94.064 213.823 93.8867 214.098 93.5322L214.722 94.231C214.532 94.5005 214.274 94.7114 213.949 94.8638C213.624 95.0132 213.263 95.0879 212.868 95.0879ZM212.723 91.1855C212.471 91.1855 212.266 91.2705 212.107 91.4404C211.952 91.6104 211.853 91.8535 211.809 92.1699H213.575V92.0688C213.569 91.7876 213.493 91.5708 213.347 91.4185C213.2 91.2632 212.992 91.1855 212.723 91.1855ZM218.22 91.436C218.047 91.4126 217.895 91.4009 217.763 91.4009C217.283 91.4009 216.968 91.5635 216.818 91.8887V95H215.548V90.2451H216.748L216.783 90.812C217.038 90.3755 217.391 90.1572 217.842 90.1572C217.983 90.1572 218.115 90.1763 218.238 90.2144L218.22 91.436ZM221.411 93.686C221.411 93.5308 221.333 93.4092 221.178 93.3213C221.025 93.2305 220.779 93.1499 220.439 93.0796C219.309 92.8423 218.743 92.3618 218.743 91.6382C218.743 91.2163 218.917 90.8647 219.266 90.5835C219.618 90.2993 220.076 90.1572 220.642 90.1572C221.245 90.1572 221.727 90.2993 222.087 90.5835C222.451 90.8677 222.632 91.2368 222.632 91.6909H221.362C221.362 91.5093 221.304 91.3599 221.187 91.2427C221.069 91.1226 220.886 91.0625 220.637 91.0625C220.423 91.0625 220.258 91.1108 220.141 91.2075C220.023 91.3042 219.965 91.4272 219.965 91.5767C219.965 91.7173 220.031 91.8315 220.163 91.9194C220.297 92.0044 220.523 92.0791 220.839 92.1436C221.156 92.2051 221.422 92.2754 221.639 92.3545C222.31 92.6006 222.646 93.0269 222.646 93.6333C222.646 94.0669 222.459 94.4185 222.087 94.688C221.715 94.9546 221.235 95.0879 220.646 95.0879C220.248 95.0879 219.893 95.0176 219.583 94.877C219.275 94.7334 219.033 94.5386 218.857 94.2925C218.682 94.0435 218.594 93.7754 218.594 93.4883H219.798C219.81 93.7139 219.893 93.8867 220.048 94.0068C220.204 94.127 220.412 94.187 220.672 94.187C220.916 94.187 221.099 94.1416 221.222 94.0508C221.348 93.957 221.411 93.8354 221.411 93.686Z" fill="white"/>
</svg>
