<svg width="138" height="62" viewBox="0 0 138 62" fill="none" xmlns="http://www.w3.org/2000/svg">
<line x1="7.85227" y1="23.7708" x2="33.5508" y2="23.7708" stroke="black"/>
<line y1="34.4785" x2="25.6985" y2="34.4785" stroke="black"/>
<line x1="9.28013" y1="45.1863" x2="34.9787" y2="45.1863" stroke="black"/>
<mask id="path-4-inside-1" fill="white">
<path fill-rule="evenodd" clip-rule="evenodd" d="M44.2586 4C44.2586 1.79086 46.0494 0 48.2586 0H90.6587V12.8492H106.72L113.889 27.467L119.007 28.4781C119.263 28.5286 119.522 28.554 119.783 28.554H133.059C135.268 28.554 137.059 30.3448 137.059 32.554V45.9694C137.059 48.1786 135.268 49.9694 133.059 49.9694H108.936C108.926 49.9694 108.916 49.9694 108.906 49.9693H90.6587V49.9694H48.2586C46.0494 49.9694 44.2586 48.1785 44.2586 45.9694V4Z"/>
</mask>
<path fill-rule="evenodd" clip-rule="evenodd" d="M44.2586 4C44.2586 1.79086 46.0494 0 48.2586 0H90.6587V12.8492H106.72L113.889 27.467L119.007 28.4781C119.263 28.5286 119.522 28.554 119.783 28.554H133.059C135.268 28.554 137.059 30.3448 137.059 32.554V45.9694C137.059 48.1786 135.268 49.9694 133.059 49.9694H108.936C108.926 49.9694 108.916 49.9694 108.906 49.9693H90.6587V49.9694H48.2586C46.0494 49.9694 44.2586 48.1785 44.2586 45.9694V4Z" fill="white"/>
<path d="M90.6587 0H91.2587V-0.6H90.6587V0ZM90.6587 12.8492H90.0587V13.4492H90.6587V12.8492ZM106.72 12.8492L107.259 12.585L107.094 12.2492H106.72V12.8492ZM113.889 27.467L113.35 27.7312L113.481 27.9981L113.772 28.0557L113.889 27.467ZM119.007 28.4781L119.124 27.8895L119.007 28.4781ZM108.906 49.9693L108.911 49.3693H108.906V49.9693ZM90.6587 49.9693V49.3693H90.0587V49.9693H90.6587ZM90.6587 49.9694V50.5694H91.2587V49.9694H90.6587ZM48.2586 -0.6C45.718 -0.6 43.6586 1.45949 43.6586 4H44.8586C44.8586 2.12223 46.3808 0.6 48.2586 0.6V-0.6ZM90.6587 -0.6H48.2586V0.6H90.6587V-0.6ZM91.2587 12.8492V0H90.0587V12.8492H91.2587ZM106.72 12.2492H90.6587V13.4492H106.72V12.2492ZM114.427 27.2029L107.259 12.585L106.182 13.1134L113.35 27.7312L114.427 27.2029ZM113.772 28.0557L118.891 29.0668L119.124 27.8895L114.005 26.8784L113.772 28.0557ZM118.891 29.0668C119.185 29.1248 119.483 29.154 119.783 29.154V27.954C119.561 27.954 119.341 27.9324 119.124 27.8895L118.891 29.0668ZM119.783 29.154H133.059V27.954H119.783V29.154ZM133.059 29.154C134.937 29.154 136.459 30.6762 136.459 32.554H137.659C137.659 30.0135 135.6 27.954 133.059 27.954V29.154ZM136.459 32.554V45.9694H137.659V32.554H136.459ZM136.459 45.9694C136.459 47.8472 134.937 49.3694 133.059 49.3694V50.5694C135.6 50.5694 137.659 48.5099 137.659 45.9694H136.459ZM133.059 49.3694H108.936V50.5694H133.059V49.3694ZM108.936 49.3694C108.927 49.3694 108.919 49.3694 108.911 49.3693L108.902 50.5693C108.913 50.5694 108.925 50.5694 108.936 50.5694V49.3694ZM90.6587 50.5693H108.906V49.3693H90.6587V50.5693ZM91.2587 49.9694V49.9693H90.0587V49.9694H91.2587ZM48.2586 50.5694H90.6587V49.3694H48.2586V50.5694ZM43.6586 45.9694C43.6586 48.5099 45.718 50.5694 48.2586 50.5694V49.3694C46.3808 49.3694 44.8586 47.8472 44.8586 45.9694H43.6586ZM43.6586 4V45.9694H44.8586V4H43.6586Z" fill="black" mask="url(#path-4-inside-1)"/>
<circle cx="56.7511" cy="53.1817" r="7.99541" fill="#444444" stroke="#727272"/>
<circle cx="122.425" cy="53.1817" r="7.99541" fill="#444444" stroke="#727272"/>
<rect x="62.5715" y="12.1355" width="9.06039" height="21.4155" fill="#ED0000"/>
<rect width="9.06039" height="21.4155" transform="matrix(-4.37114e-08 -1 -1 4.37114e-08 77.8098 27.3735)" fill="#ED0000"/>
<path d="M94.2279 18.4185C94.2279 17.3139 95.1233 16.4185 96.2279 16.4185H102.953C103.727 16.4185 104.432 16.8659 104.762 17.5669L108.591 25.7023C109.215 27.0288 108.247 28.5539 106.781 28.5539H96.2279C95.1233 28.5539 94.2279 27.6585 94.2279 26.5539V18.4185Z" fill="#C4C4C4"/>
<circle cx="122.559" cy="53.2812" r="3.5" fill="white"/>
<circle cx="56.5588" cy="53.2812" r="3.5" fill="white"/>
</svg>
