<svg width="192" height="102" viewBox="0 0 192 102" fill="none" xmlns="http://www.w3.org/2000/svg">
<rect x="146.95" y="53.7821" width="5.69031" height="21.5271" transform="rotate(-17.0046 146.95 53.7821)" fill="white" stroke="#ED0000"/>
<path d="M154.877 32.0466L142.755 35.7537C137.92 37.2324 135.199 42.3509 136.677 47.1861V47.1861C138.156 52.0213 143.275 54.7423 148.11 53.2636L160.232 49.5564" stroke="#ED0000"/>
<rect x="174.481" y="30.6249" width="5.69031" height="9.56365" transform="rotate(-17.0046 174.481 30.6249)" fill="white" stroke="#ED0000"/>
<path d="M160.283 49.2094L155.211 32.1777L172.182 16.8966L183.05 52.4347L160.283 49.2094Z" fill="white" stroke="#ED0000"/>
<line x1="182.766" y1="28.0327" x2="185.772" y2="22.8264" stroke="black"/>
<line x1="184.952" y1="37.5501" x2="190.158" y2="40.556" stroke="black"/>
<line x1="186.064" y1="33.0908" x2="191.871" y2="31.5348" stroke="black"/>
<rect x="0.910645" y="22.7251" width="55" height="86" rx="4" transform="rotate(-24.4049 0.910645 22.7251)" fill="#444444"/>
<rect x="7.44552" y="27.4468" width="47" height="66" transform="rotate(-24.4049 7.44552 27.4468)" fill="white"/>
<rect x="6.19774" y="36.7979" width="1" height="8" transform="rotate(-24.4049 6.19774 36.7979)" fill="#444444"/>
<circle cx="59.0502" cy="83.097" r="4" transform="rotate(-24.4049 59.0502 83.097)" fill="white"/>
<path d="M36.9709 57.9752L34.8366 58.9436L32.8223 54.5042L28.6604 56.3926L30.6746 60.832L28.5403 61.8004L23.8403 51.4418L25.9747 50.4734L27.8792 54.6709L32.0411 52.7825L30.1366 48.585L32.2709 47.6166L36.9709 57.9752ZM43.0374 49.8093L38.9395 51.6687L40.1984 54.4433L45.0077 52.2612L45.7857 53.9757L38.842 57.1263L34.142 46.7676L41.0715 43.6236L41.8559 45.3524L37.0608 47.5281L38.1809 49.9968L42.2788 48.1374L43.0374 49.8093ZM48.3942 50.7246L52.9261 48.6684L53.7041 50.383L47.0378 53.4076L42.3379 43.049L44.4722 42.0806L48.3942 50.7246ZM55.4132 45.2065L57.0692 48.8562L54.9349 49.8246L50.2349 39.4659L54.2759 37.6324C55.0538 37.2795 55.8013 37.1119 56.5185 37.1296C57.2405 37.1452 57.8799 37.3442 58.4365 37.7264C58.991 38.104 59.42 38.6271 59.7234 39.2959C60.1839 40.3109 60.199 41.2706 59.7686 42.1751C59.3409 43.0727 58.5128 43.8001 57.2843 44.3575L55.4132 45.2065ZM54.6288 43.4776L56.5355 42.6125C57.0999 42.3565 57.4689 42.0289 57.6424 41.6299C57.8207 41.2287 57.798 40.7815 57.5742 40.2882C57.3439 39.7807 57.0084 39.4382 56.5675 39.2608C56.1267 39.0833 55.6409 39.1093 55.1101 39.3386L53.1536 40.2263L54.6288 43.4776Z" fill="#ED0000"/>
<path d="M61 89C87.5 94.5 87 95.9834 105.5 85.5C135 73 147.5 95.5 167.5 94C183.5 92.8 157.5 80.5 156 73" stroke="#444444"/>
</svg>
